<svg width="39" height="34" viewBox="0 0 39 34" fill="none" xmlns="http://www.w3.org/2000/svg">
<g clip-path="url(#clip0)">
<path d="M11.9677 27.2C9.8792 27.2 8.20649 28.7214 8.20649 30.6C8.20649 32.4785 9.8792 34 11.9677 34C14.0562 34 15.7478 32.4785 15.7478 30.6C15.7478 28.7214 14.0562 27.2 11.9677 27.2Z" fill="white"/>
<path d="M14.0468 18.7H28.1277C29.5452 18.7 30.7832 17.9945 31.4353 16.949L38.1923 5.91599C38.3435 5.67797 38.4286 5.39747 38.4286 5.1C38.4286 4.1565 37.578 3.40002 36.5385 3.40002H8.59392L6.79834 0H0.627319V3.40002H4.40747L11.2022 16.2945L8.65063 20.4595C8.35764 20.9525 8.18753 21.505 8.18753 22.1C8.18753 23.9785 9.8792 25.5 11.9677 25.5H34.6484V22.1H12.771C12.5064 22.1 12.2985 21.9129 12.2985 21.675C12.2985 21.5985 12.3174 21.5305 12.3552 21.471L14.0468 18.7Z" fill="white"/>
<path d="M30.8683 27.2C28.7798 27.2 27.1071 28.7214 27.1071 30.6C27.1071 32.4785 28.7798 34 30.8683 34C32.9568 34 34.6484 32.4784 34.6484 30.6C34.6484 28.7215 32.9568 27.2 30.8683 27.2Z" fill="white"/>
</g>
<defs>
<clipPath id="clip0">
<rect width="37.8012" height="34" fill="white" transform="translate(0.627319)"/>
</clipPath>
</defs>
</svg>
