<svg width="35" height="27" viewBox="0 0 35 27" fill="none" xmlns="http://www.w3.org/2000/svg">
<path d="M32.5195 2.17977C30.8657 0.726383 28.5809 0 25.6639 0C24.8567 0 24.0328 0.125969 23.1931 0.377784C22.3531 0.629783 21.5717 0.969763 20.8497 1.39748C20.1268 1.82507 19.5055 2.22662 18.9842 2.60151C18.4636 2.97652 17.9687 3.37505 17.5 3.7968C17.0312 3.37505 16.5364 2.97652 16.0157 2.60151C15.4947 2.22662 14.8731 1.82532 14.1503 1.39748C13.4276 0.969579 12.6463 0.629844 11.8065 0.377784C10.9668 0.12603 10.1431 0 9.33584 0C6.41907 0 4.13405 0.726568 2.48046 2.17977C0.826865 3.63284 0 5.64834 0 8.22646C0 9.01164 0.153237 9.82052 0.459096 10.6521C0.764955 11.4842 1.1135 12.1932 1.50405 12.7791C1.89453 13.3648 2.33735 13.9361 2.83215 14.4928C3.32696 15.0494 3.68857 15.433 3.91617 15.644C4.14397 15.8549 4.32307 16.0074 4.45325 16.1012L16.6406 26.6833C16.875 26.8942 17.1615 27 17.5 27C17.8385 27 18.1251 26.8942 18.3594 26.6833L30.5274 16.136C33.5092 13.4529 35 10.8161 35 8.22621C35.0001 5.64791 34.1733 3.63259 32.5195 2.17977ZM28.8281 14.484L17.5 24.31L6.15261 14.4662C3.71764 12.2753 2.50037 10.195 2.50037 8.22621C2.50037 7.27713 2.64033 6.43913 2.92013 5.71274C3.20013 4.98624 3.55818 4.40891 3.99436 3.98119C4.43061 3.55336 4.96112 3.205 5.58611 2.93527C6.21144 2.66579 6.82337 2.4841 7.42222 2.39039C8.02108 2.29681 8.659 2.24995 9.33618 2.24995C10.0132 2.24995 10.7425 2.3992 11.5237 2.69811C12.3048 2.9969 13.0242 3.37191 13.6817 3.82303C14.3393 4.27444 14.9025 4.69625 15.3714 5.08869C15.8401 5.48149 16.2306 5.84161 16.5431 6.16977C16.7774 6.42768 17.0966 6.5566 17.5001 6.5566C17.9037 6.5566 18.2226 6.42768 18.4572 6.16977C18.7696 5.84161 19.1604 5.48131 19.6291 5.08869C20.0978 4.69625 20.661 4.27463 21.3184 3.82303C21.976 3.37191 22.6954 2.9969 23.4769 2.69811C24.2579 2.39926 24.9874 2.24995 25.6644 2.24995C26.3415 2.24995 26.9792 2.29681 27.5783 2.39039C28.1774 2.48404 28.7893 2.66579 29.4144 2.93527C30.0395 3.20494 30.57 3.55354 31.0061 3.98119C31.4423 4.40891 31.8005 4.98624 32.0805 5.71274C32.36 6.43913 32.5 7.27713 32.5 8.22621C32.4998 10.195 31.2761 12.2811 28.8281 14.484Z" fill="#F52727"/>
</svg>
