<svg width="29" height="25" viewBox="0 0 29 25" fill="none" xmlns="http://www.w3.org/2000/svg">
<g clip-path="url(#clip0)">
<path d="M14.1833 21.9283C14.1833 20.6118 12.9455 19.5447 11.4186 19.5447C9.89151 19.5447 8.65363 20.6118 8.65363 21.9281C8.65363 23.2445 9.89151 24.3117 11.4186 24.3117C12.9446 24.3103 14.1817 23.2441 14.1833 21.9283ZM9.6343 21.9283C9.6343 21.0786 10.433 20.3901 11.4186 20.3901C12.4039 20.3901 13.2027 21.0786 13.2027 21.9281C13.2027 22.7777 12.4039 23.4663 11.4186 23.4663C10.4336 23.4653 9.6354 22.7772 9.6343 21.9283Z" fill="black"/>
<path d="M21.6566 24.3117C23.1837 24.3119 24.4216 23.2448 24.4216 21.9283C24.4218 20.6118 23.1839 19.5447 21.6568 19.5447C20.1297 19.5447 18.8918 20.6118 18.8918 21.9283C18.8938 23.2438 20.1303 24.31 21.6566 24.3117ZM21.6566 20.3901C22.6419 20.3901 23.4409 21.0786 23.4409 21.9281C23.4412 22.7775 22.6422 23.4663 21.6568 23.4663C20.6715 23.4663 19.8725 22.7777 19.8725 21.9283C19.8736 21.0793 20.6718 20.3913 21.6566 20.3901Z" fill="black"/>
<path d="M0.490336 0.845426H3.48133C4.46556 0.842124 5.30476 1.4599 5.45471 2.2987L7.82238 15.1919C8.04594 16.442 9.29695 17.3632 10.7644 17.3582H25.3995C25.6701 17.3582 25.8898 17.1688 25.8898 16.9355C25.8898 16.702 25.6701 16.5128 25.3995 16.5128H10.7644C9.78017 16.5161 8.94096 15.8981 8.79102 15.0595L8.38851 12.8675H23.3774C24.6465 12.867 25.776 12.174 26.1919 11.1406L28.9728 4.22162C29.025 4.09236 29.0012 3.94942 28.9093 3.83784C28.8171 3.72651 28.6682 3.66022 28.5095 3.66022H6.69751L6.42334 2.16637C6.19979 0.916191 4.94878 -0.00493366 3.48133 1.98837e-05H0.490336C0.219447 1.98837e-05 0 0.189434 0 0.422723C0 0.656248 0.219447 0.845426 0.490336 0.845426ZM27.8205 4.50586L25.2654 10.8636C24.9863 11.5569 24.2287 12.0218 23.3774 12.0221H8.2331L6.85266 4.50563L27.8205 4.50586Z" fill="black"/>
</g>
<defs>
<clipPath id="clip0">
<rect width="29" height="25" fill="white"/>
</clipPath>
</defs>
</svg>
