<svg width="22" height="22" viewBox="0 0 22 22" fill="none" xmlns="http://www.w3.org/2000/svg">
<g clip-path="url(#clip0)">
<path d="M15.2231 13.0548C17.864 9.32567 16.9808 4.16192 13.2516 1.52169C9.52251 -1.11854 4.35876 -0.235943 1.71853 3.49382C-0.921705 7.22295 -0.0391044 12.3861 3.69066 15.0263C6.35234 16.9107 9.87138 17.0558 12.6788 15.3979L18.7788 21.4613C19.4374 22.1546 20.5333 22.1824 21.2266 21.5237C21.9199 20.8657 21.9477 19.7699 21.2897 19.0765C21.2689 19.0545 21.2487 19.0343 21.2266 19.0135L15.2231 13.0548ZM8.46578 13.6201C5.51895 13.6207 3.1298 11.2334 3.12791 8.28661C3.12728 5.33977 5.51453 2.95063 8.462 2.94937C11.4051 2.94811 13.7929 5.33157 13.7986 8.27462C13.8037 11.2221 11.4177 13.615 8.46957 13.6201C8.46831 13.6201 8.46768 13.6201 8.46578 13.6201Z" fill="#657EA3"/>
</g>
<defs>
<clipPath id="clip0">
<rect width="22" height="22" fill="white"/>
</clipPath>
</defs>
</svg>
